<?xml version="1.0" standalone="no"?>
<!DOCTYPE svg PUBLIC "-//W3C//DTD SVG 20010904//EN"
 "http://www.w3.org/TR/2001/REC-SVG-20010904/DTD/svg10.dtd">
<svg version="1.0" xmlns="http://www.w3.org/2000/svg"
 width="351.000000pt" height="351.000000pt" viewBox="0 0 351.000000 351.000000"
 preserveAspectRatio="xMidYMid meet">

<g transform="translate(0.000000,351.000000) scale(0.100000,-0.100000)"
fill="#000000" stroke="none">
<path d="M1695 3422 c-106 -7 -181 -25 -251 -59 -189 -91 -319 -226 -481 -503
-66 -113 -95 -179 -153 -340 -79 -224 -100 -375 -101 -705 -1 -115 -5 -257
-10 -315 -21 -250 -41 -429 -54 -480 -8 -30 -24 -100 -36 -155 -32 -150 -34
-155 -120 -195 -41 -19 -76 -36 -78 -37 -2 -1 23 -31 54 -67 124 -140 325
-290 510 -381 101 -49 300 -125 329 -125 9 0 10 15 4 63 -62 483 -73 677 -51
877 20 174 26 184 85 154 l31 -16 -38 48 c-22 27 -56 67 -76 89 -115 124 -174
290 -204 575 -17 162 -19 310 -4 382 6 29 44 121 85 205 70 143 80 158 171
253 52 55 99 100 103 100 4 0 32 22 61 50 30 27 77 61 104 74 53 27 121 47
128 39 3 -2 39 3 80 11 42 9 83 13 91 10 9 -3 16 -1 16 6 0 6 4 8 10 5 6 -4 7
1 3 11 -5 13 -3 15 7 9 10 -6 12 -4 6 11 -4 10 -4 15 0 11 4 -4 16 1 26 10 15
14 19 14 16 3 -2 -8 -7 -18 -12 -22 -6 -4 -5 -12 3 -21 9 -11 9 -16 0 -19 -8
-3 -7 -9 4 -20 9 -8 13 -19 9 -22 -3 -4 2 -4 12 0 14 5 17 4 12 -4 -4 -7 -3
-12 3 -12 6 0 41 -31 79 -69 37 -37 72 -70 78 -72 5 -2 44 -42 88 -88 80 -85
129 -171 171 -301 10 -30 27 -75 38 -100 42 -91 32 -345 -24 -635 -29 -151
-94 -269 -235 -428 -37 -41 -42 -51 -32 -67 7 -10 16 -16 20 -14 4 3 8 -3 9
-13 0 -10 3 -27 5 -38 10 -44 18 -112 18 -152 1 -23 4 -39 8 -37 5 3 8 -15 8
-40 0 -24 4 -46 8 -48 4 -1 18 -18 30 -35 21 -30 23 -40 18 -120 -3 -49 -8
-106 -11 -128 -22 -184 -48 -379 -56 -419 -5 -27 -7 -51 -4 -54 8 -9 219 69
320 118 114 55 250 141 345 220 70 57 230 219 230 232 0 4 -43 28 -95 52 -112
53 -108 45 -155 251 -62 270 -68 329 -62 681 3 189 0 326 -7 392 -16 138 -70
391 -115 537 -40 132 -183 436 -239 510 -170 223 -321 317 -542 340 -33 4 -80
12 -105 18 -25 7 -63 11 -85 9z m944 -1113 c28 -80 -2 -267 -67 -414 -41 -95
-78 -133 -103 -108 -24 24 23 171 65 202 30 22 45 73 41 132 -3 30 0 61 5 69
16 25 31 -37 26 -104 -5 -53 -4 -55 4 -21 12 52 12 116 1 134 -7 10 -4 22 8
38 11 13 16 32 14 48 -6 31 -17 32 -31 3 l-11 -23 0 26 c-1 24 15 49 30 49 4
0 12 -14 18 -31z m-1625 -444 c4 -19 11 -35 16 -35 6 0 10 -9 10 -20 0 -24 -8
-25 -38 -4 -31 21 -41 53 -30 87 13 35 33 22 42 -28z"/>
<path d="M2539 1961 c-31 -25 -21 -35 11 -11 14 10 22 21 19 25 -3 3 -17 -3
-30 -14z"/>
<path d="M2009 2353 c-9 -11 -7 -13 12 -11 15 2 24 -2 24 -12 0 -17 75 -28 75
-11 0 9 12 12 55 10 11 0 41 0 67 0 26 0 50 -4 53 -9 8 -14 38 -13 33 1 -2 6
-6 9 -9 7 -3 -2 -13 3 -22 11 -10 7 -17 10 -17 7 0 -4 -10 -2 -21 5 -17 9 -20
8 -14 -2 6 -8 4 -10 -6 -3 -21 13 -37 15 -131 18 -65 2 -91 0 -99 -11z m131
-3 c0 -12 -8 -12 -35 0 -18 8 -17 9 8 9 15 1 27 -3 27 -9z"/>
<path d="M1298 2345 c-3 -3 -16 -8 -28 -10 -32 -6 -35 -12 -6 -12 14 0 31 6
37 13 11 13 8 20 -3 9z"/>
<path d="M1450 2340 c13 -8 12 -10 -3 -10 -10 0 -15 -5 -12 -10 4 -7 13 -7 26
0 26 14 24 30 -3 30 -19 0 -20 -2 -8 -10z"/>
<path d="M1513 2335 c0 -8 4 -12 9 -9 5 3 6 10 3 15 -9 13 -12 11 -12 -6z"/>
<path d="M1398 2323 c7 -3 16 -2 19 1 4 3 -2 6 -13 5 -11 0 -14 -3 -6 -6z"/>
<path d="M1378 2199 c-2 -5 -19 -10 -40 -11 -20 -2 -34 -6 -32 -10 3 -4 -14
-12 -36 -18 -39 -11 -47 -30 -11 -30 9 0 21 -4 27 -10 13 -13 54 -1 54 16 0
12 29 34 44 34 3 0 6 -11 6 -24 0 -28 16 -43 50 -46 41 -4 46 -1 58 26 13 28
37 23 29 -7 -3 -11 -1 -19 4 -19 5 0 9 5 9 11 0 6 7 3 16 -6 9 -9 18 -14 21
-11 8 8 -37 62 -68 80 -33 20 -127 37 -131 25z m82 -39 c0 -5 -7 -10 -15 -10
-8 0 -15 5 -15 10 0 6 7 10 15 10 8 0 15 -4 15 -10z"/>
<path d="M2105 2195 c-5 -2 -22 -6 -38 -9 -29 -7 -107 -71 -107 -89 0 -5 12 2
27 17 l27 27 19 -25 c37 -51 119 -23 104 35 -7 26 8 24 31 -5 14 -19 22 -22
31 -13 6 6 11 8 11 5 0 -4 -8 -14 -17 -24 -13 -12 -14 -16 -3 -11 8 3 34 12
58 19 23 7 42 16 42 20 0 8 -40 27 -71 33 -9 2 -34 8 -55 14 -41 11 -43 12
-59 6z"/>
<path d="M1812 1684 c-35 -24 -29 -44 10 -33 44 12 54 25 31 38 -15 7 -25 6
-41 -5z"/>
<path d="M1650 1676 c0 -11 9 -15 30 -13 36 2 34 21 -3 25 -19 2 -27 -1 -27
-12z"/>
<path d="M1783 1492 c-13 -2 -23 -8 -23 -13 0 -6 -17 -7 -42 -3 -54 8 -116 6
-158 -6 -17 -5 -46 -7 -63 -4 -28 4 -25 1 18 -21 28 -14 56 -23 64 -20 8 3 23
-4 33 -15 14 -15 23 -18 32 -11 7 6 16 8 19 4 4 -3 7 -1 7 5 0 7 7 12 16 12 8
0 13 -4 10 -8 -2 -4 22 -9 55 -9 58 -1 94 -16 83 -34 -3 -5 0 -9 6 -9 6 0 13
7 16 15 4 8 10 12 15 9 5 -3 9 -1 9 4 0 13 47 32 63 26 18 -7 102 42 88 50 -6
4 -19 5 -29 2 -10 -4 -38 1 -62 9 -44 16 -119 24 -157 17z"/>
</g>
</svg>
